<svg width="90" height="90" viewBox="0 0 90 90" fill="none" xmlns="http://www.w3.org/2000/svg">
<rect width="90" height="90" fill="#007BBD"/>
<path d="M38.1162 67.7451C38.1162 70.1201 37.207 71.988 35.3887 73.3486C33.5827 74.6969 31.0654 75.3711 27.8369 75.3711C24.93 75.3711 22.5612 74.7588 20.7305 73.5342C18.8997 72.3096 17.7246 70.5283 17.2051 68.1904L22.4932 67.5039C22.7777 68.6667 23.3714 69.5882 24.2744 70.2686C25.1774 70.9365 26.4144 71.2705 27.9854 71.2705C29.6182 71.2705 30.8242 71.0107 31.6035 70.4912C32.3952 69.9717 32.791 69.1615 32.791 68.0605C32.791 67.2441 32.4447 66.5576 31.752 66.001C31.0592 65.432 30.0511 64.9867 28.7275 64.665C26.068 64.0218 24.1878 63.4652 23.0869 62.9951C21.9984 62.5127 21.1263 61.9746 20.4707 61.3809C19.8151 60.7871 19.3079 60.0944 18.9492 59.3027C18.6029 58.4987 18.4297 57.6019 18.4297 56.6123C18.4297 54.4476 19.2956 52.7344 21.0273 51.4727C22.7715 50.2109 25.0661 49.5801 27.9111 49.5801C30.682 49.5801 32.8467 50.1305 34.4053 51.2314C35.9639 52.32 36.972 54.0146 37.4297 56.3154L32.123 56.8535C31.5788 54.5898 30.1377 53.458 27.7998 53.458C26.4886 53.458 25.4867 53.7054 24.7939 54.2002C24.1012 54.6826 23.7549 55.3815 23.7549 56.2969C23.7549 56.903 23.9219 57.4102 24.2559 57.8184C24.5898 58.2142 25.0413 58.5544 25.6104 58.8389C26.1917 59.111 27.3669 59.4759 29.1357 59.9336C31.4613 60.5026 33.2487 61.1396 34.498 61.8447C35.7474 62.5374 36.6628 63.3786 37.2441 64.3682C37.8255 65.3577 38.1162 66.4834 38.1162 67.7451ZM47.8945 54.2002V61.3252H59.417V65.5557H47.8945V75H42.4209V49.9697H59.8438V54.2002H47.8945ZM76.2832 54.2002V75H70.8096V54.2002H63.2764V49.9697H83.8164V54.2002H76.2832Z" fill="white"/>
<path d="M19.042 39V13.9697H37.0029V18.2002H24.5156V24.2119H35.8711V28.4424H24.5156V34.7695H37.7637V39H19.042ZM53.2012 39L46.0762 20.2598C46.4225 23.377 46.5957 25.5664 46.5957 26.8281V39H41.8271V13.9697H48.0801L55.3721 33.2109C55.0257 30.304 54.8525 28.0465 54.8525 26.4385V13.9697H59.6211V39H53.2012ZM83.2598 39H63.7588V35.1221L76.209 18.2559H65.1689V13.9697H82.499V17.7734L70.0488 34.7139H83.2598V39Z" fill="white"/>
<line x1="9.5" y1="7" x2="9.5" y2="82" stroke="white" stroke-width="5"/>
</svg>
